{"title":"Los.Amantes.Pasajeros.[Im.So.Excited].2013.BRRip.XviD.HORiZON-Ar","uid":8806648,"size":1530176058,"categoryP":"video","categoryS":"movies","magnet":"?xt=urn:btih:b16dc53836fa05ca6f636bc95108452644ca496d&amp;dn=Los.Amantes.Pasajeros.%5BIm.So.Excited%5D.2013.BRRip.XviD.HORiZON-Ar&amp;tr=udp%3A%2F%2Ftracker.openbittorrent.com%3A80&amp;tr=udp%3A%2F%2Fopen.demonii.com%3A1337&amp;tr=udp%3A%2F%2Ftracker.coppersurfer.tk%3A6969&amp;tr=udp%3A%2F%2Fexodus.desync.com%3A6969","seeders":22,"leechers":1,"uploader":"lletaif","files":1,"time":1376348948,"description":"Imdb: &lt;a href=&quot;\nhttp://www.imdb.com/title/tt2243389/?ref_=sr_1&quot; rel=&quot;nofollow&quot; target=&quot;_NEW&quot;&gt;\nhttp://www.imdb.com/title/tt2243389/?ref_=sr_1&lt;/a&gt;\n\nNo Subtitle\n\n\n\nRip Spect:\n\nGeneral\nComplete name                            : G:Los.Amantes.Pasajeros.[Im.So.Excited].2013.BRRip.XviD.HORiZON-ArtSubs.avi\nFormat                                   : AVI\nFormat/Info                              : Audio Video Interleave\nFormat profile                           : OpenDML\nFile size                                : 1.43 GiB\nDuration                                 : 1h 30mn\nOverall bit rate                         : 2 258 Kbps\nWriting application                      : Lavf54.63.104\n\nVideo\nID                                       : 0\nFormat                                   : xvid\nCodec ID                                 : xvid\nDuration                                 : 1h 30mn\nBit rate                                 : 2 022 Kbps\nWidth                                    : 1 280 pixels\nHeight                                   : 690 pixels\nDisplay aspect ratio                     : 1.85:1\nFrame rate                               : 23.976 fps\nBits/(Pixel*Frame)                       : 0.095\nStream size                              : 1.28 GiB (90%)\n\nAudio\nID                                       : 1\nFormat                                   : AC-3\nFormat/Info                              : Audio Coding 3\nMode extension                           : CM (complete main)\nFormat settings, Endianness              : Big\nCodec ID                                 : 2000\nDuration                                 : 1h 30mn\nBit rate mode                            : Constant\nBit rate                                 : 224 Kbps\nChannel(s)                               : 2 channels\nChannel positions                        : Front: L R\nSampling rate                            : 48.0 KHz\nBit depth                                : 16 bits\nCompression mode                         : Lossy\nStream size                              : 145 MiB (10%)\nAlignment                                : Aligned on interleaves\nInterleave, duration                     : 32 ms (0.77 video frame)\n\n","torrent":{"xt":"urn:btih:b16dc53836fa05ca6f636bc95108452644ca496d","amp;dn":"Los.Amantes.Pasajeros.%5BIm.So.Excited%5D.2013.BRRip.XviD.HORiZON-Ar","amp;tr":["udp%3A%2F%2Ftracker.openbittorrent.com%3A80","udp%3A%2F%2Fopen.demonii.com%3A1337","udp%3A%2F%2Ftracker.coppersurfer.tk%3A6969","udp%3A%2F%2Fexodus.desync.com%3A6969"],"infoHash":"b16dc53836fa05ca6f636bc95108452644ca496d","infoHashBuffer":{"type":"Buffer","data":[177,109,197,56,54,250,5,202,111,99,107,201,81,8,69,38,68,202,73,109]},"announce":[],"urlList":[]}}